<?xml version="1.0" standalone="no"?><!DOCTYPE svg PUBLIC "-//W3C//DTD SVG 1.1//EN"
        "http://www.w3.org/Graphics/SVG/1.1/DTD/svg11.dtd">
<svg t="1669553107479" class="icon" viewBox="0 0 1024 1024" version="1.1" xmlns="http://www.w3.org/2000/svg" p-id="2137"
     xmlns:xlink="http://www.w3.org/1999/xlink" width="16" height="16">
    <path d="M950.9 930H73.1c-34.6 0-62.7-28.1-62.7-62.7V156.7c0-34.6 28.1-62.7 62.7-62.7h877.7c34.6 0 62.7 28.1 62.7 62.7v710.5c0.1 34.6-28.1 62.8-62.6 62.8zM73.1 135.8c-11.5 0-20.9 9.4-20.9 20.9v710.5c0 11.5 9.4 20.9 20.9 20.9h877.7c11.5 0 20.9-9.4 20.9-20.9V156.7c0-11.5-9.4-20.9-20.9-20.9H73.1z"
          fill="#000333" p-id="2138"></path>
    <path d="M355.3 741.9c-126.8 0-229.9-103.1-229.9-229.9s103.1-229.9 229.9-229.9S585.1 385.2 585.1 512 482 741.9 355.3 741.9z m0-418c-103.7 0-188.1 84.4-188.1 188.1 0 103.7 84.4 188.1 188.1 188.1s188-84.4 188-188.1c0-103.7-84.3-188.1-188-188.1z"
          fill="#000333" p-id="2139"></path>
    <path d="M627.5 746.5c-5 0-10-1.8-14-5.3l-89.9-80.7c-8.6-7.7-9.3-20.9-1.6-29.5 7.7-8.6 21-9.3 29.5-1.6l89.9 80.7c8.6 7.7 9.3 20.9 1.6 29.5-4.1 4.6-9.8 6.9-15.5 6.9z"
          fill="#000333" p-id="2140"></path>
</svg>